<svg xmlns="http://www.w3.org/2000/svg" width="16" height="16" viewBox="0 0 16 16"><path d="M7.791.528a1.528 1.528 0 0 1-.226.021c-.119.009-.233.021-.256.023a1.805 1.805 0 0 1-.167.021c-.394.043-1.235.23-1.487.328l-.319.116c-.652.236-1.463.673-1.958 1.053-.329.254-.41.321-.604.496A8.287 8.287 0 0 0 .617 5.754c-.042.11-.084.22-.095.245-.128.32-.335 1.137-.405 1.584C.021 8.213 0 8.501 0 9.179c0 .494.019.881.044 1.021.007.026.019.127.025.223.009.093.021.177.023.185a14.132 14.132 0 0 0 .139.722 8.746 8.746 0 0 0 1.232 2.843c.289.427.522.712.976 1.193l.105.111.377-.449c.207-.245.468-.561.58-.69l.225-.269c.014-.016.1-.116.193-.229.093-.112.177-.207.187-.215.009-.004.044.01.074.035.284.225.92.588 1.328.76.538.229 1.203.431 1.573.479.051.007.14.021.198.035.058.015.179.029.268.037.091.01.168.021.175.023.037.021.552.046 1.013.046.7 0 .963-.025 1.631-.161a8.53 8.53 0 0 0 .909-.268c.025-.015.121-.051.209-.087a7.833 7.833 0 0 0 1.82-1.065l.193-.154-.393-.342c-.213-.189-.418-.372-.457-.403-.096-.084-.105-.094-.233-.21-.063-.059-.196-.173-.291-.257-.097-.084-.271-.239-.396-.35-.123-.11-.295-.261-.385-.338l-.594-.523a13.179 13.179 0 0 0-.304-.268c-.416-.363-.439-.387-.562-.496l-.109-.102-.194.229c-.106.127-.437.511-.728.856-.293.347-.563.66-.604.701l-.07.075-.142-.121a3.118 3.118 0 0 1-.154-.133c-.009-.012-.266-.226-.408-.347-.025-.021-.193-.164-.373-.314a33.455 33.455 0 0 1-.442-.373 7.448 7.448 0 0 1-.314-.27 2.782 2.782 0 0 0-.14-.117l-.199-.165c-.037-.035-.147-.126-.24-.208-.09-.078-.163-.147-.156-.155.033-.031.382-.451.55-.658.044-.058.093-.11.105-.126l.128-.151c.13-.161.091-.112.675-.816l.801-.968c1.153-1.391 1.106-1.339 1.174-1.327.222.037.538.086.587.094.032.007.096.015.141.021s.113.021.15.021c.04.01.2.032.361.061l.354.059a2.397 2.397 0 0 0 .299.044c.057.007.119.019.137.022a.824.824 0 0 0 .117.021c.104.016.188.027.617.1.193.031.387.062.433.067l.116.021c.02.004.082.018.141.021.15.021.234.034.311.05l.062.015-.109.131c-.062.072-.115.138-.124.146a48.35 48.35 0 0 0-.44.521c-.235.281-.438.52-.443.523l-.232.278c-.121.147-.227.272-.232.28-.007.006-.066.076-.137.158l-.121.146.193.154.282.228c.05.037.106.087.13.104a90.126 90.126 0 0 0 .98.793c.007.006.231.189.5.406.271.217.495.396.502.405.007.007.17.141.36.293.192.153.354.284.36.291.007.009.146.119.308.252.291.234.297.236.326.188.442-.785.773-1.634.894-2.29.009-.041.032-.188.069-.406.017-.089.022-.146.051-.433.022-.244.022-1.118-.002-1.341l-.027-.286a7.93 7.93 0 0 0-.094-.574 8.435 8.435 0 0 0-.241-.873 6.213 6.213 0 0 0-.646-1.357 2.749 2.749 0 0 1-.146-.252c0-.042-.438-.542-.73-.837-.365-.366-.469-.459-.644-.595a4.526 4.526 0 0 0-.373-.282A8.098 8.098 0 0 0 10.104.701c-.035-.004-.088-.017-.121-.021a8.482 8.482 0 0 0-.944-.133A24.051 24.051 0 0 0 7.791.528z"/></svg>