<svg width="100%" height="100%" viewBox="0 0 6400 1600" xmlns="http://www.w3.org/2000/svg">
  <defs>
    <style>
      text {
        font-family:'Outfit-Light','Outfit';
        font-weight:300;
        font-size:275px;
        fill:red;
      }
    </style>
    <filter id="blendRight">
      <feFlood flood-color="#fff" result="bg"/>
      <feComposite in="SourceGraphic" in2="bg" result="orig"/>
      <feOffset in="SourceGraphic" dx="19.8" result="shifted"/>
      <feBlend in="orig" in2="shifted" mode="difference"/>
    </filter>
    <filter id="blendLeft">
      <feFlood flood-color="#fff" result="bg"/>
      <feComposite in="SourceGraphic" in2="bg" result="orig"/>
      <feOffset in="SourceGraphic" dx="-19.8" result="shifted"/>
      <feBlend in="orig" in2="shifted" mode="difference"/>
    </filter>
    <symbol id="hello">

    </symbol>
  </defs>
  <path fill="#fff" d="M0 0h6400v1600H0z"/>
  <g filter="url(#blendRight)" transform="translate(526.3 987) scale(2.61779)">
    <text x="-16.8">h</text>
    <text x="133.6">e</text>
    <text x="280">l</text>
    <text x="338">l</text>
    <text x="393.3">o</text>
  </g>
  <g filter="url(#blendLeft)" transform="translate(2512.5 987) scale(2.61779)">
    <text>i</text>
    <text x="58.3">r</text>
    <text x="168.9">k</text>
    <text x="289.1">f</text>
    <text x="389.7">a</text>
    <text x="549">p</text>
    <text x="702.7">.</text>
    <text x="776.4">c<tspan x="909.8">o</tspan></text>
    <text x="1064.7">m</text>
  </g>
  <path fill="red" d="M2239.2 588.3c-131.6 0-229.7 99.3-229.7 231 0 129 98 228.4 229.7 228.4 131.6 0 229.7-99.3 229.7-228.5 0-131.6-98-231-229.7-231ZM2391 876.5l-94-75.1 44-52.3-93-15.3-81.4 97.4 62 52.3 37.8-44.8 89.2 78.6c-62.5 52.3-159.3 57.4-225.1 7.5l-36.4 43.5c-107.9-104-71-299 75.4-346 79.9-24.3 168-.3 218.7 66.1 37.2 55 37.5 130.9 2.8 188Z"/>
</svg>