<svg width="100%" height="100%" viewBox="0 0 6400 1600" xmlns="http://www.w3.org/2000/svg">
  <defs>
    <style>

    </style>
    <filter id="blendRight">
      <feFlood flood-color="#fff" result="bg"/>
      <feComposite in="SourceGraphic" in2="bg" result="orig"/>
      <feOffset in="SourceGraphic" dx="50.8" result="shifted"/>
      <feBlend in="orig" in2="shifted" mode="difference"/>
    </filter>
    <filter id="blendLeft">
      <feFlood flood-color="#fff" result="bg"/>
      <feComposite in="SourceGraphic" in2="bg" result="orig"/>
      <feOffset in="SourceGraphic" dx="-50.8" result="shifted"/>
      <feBlend in="orig" in2="shifted" mode="difference"/>
    </filter>
    <symbol id="hello">

    </symbol>
  </defs>
  <path fill="#fff" d="M0 0h6400v1600H0z"/>
  <g fill="red" filter="url(#blendRight)">
    <path d="M779.646,987.02L779.646,788.3C779.646,758.78 770.826,734.78 753.186,716.3C735.546,697.82 712.356,688.58 683.616,688.58C664.056,688.58 646.791,692.84 631.821,701.36C616.851,709.88 605.106,721.58 596.586,736.46C588.066,751.34 583.806,768.5 583.806,787.94L560.766,774.98C560.766,749.3 566.706,726.44 578.586,706.4C590.466,686.36 606.713,670.52 627.327,658.88C647.941,647.24 671.283,641.42 697.353,641.42C723.415,641.42 746.466,647.3 766.506,659.06C786.546,670.82 802.206,687.08 813.486,707.84C824.766,728.6 830.406,752.54 830.406,779.66L830.406,987.02L779.646,987.02ZM533.046,987.02L533.046,477.26L583.806,477.26L583.806,987.02L533.046,987.02Z"/>
    <path d="M1083.13,994.22C1049.29,994.22 1018.93,986.54 992.046,971.18C965.166,955.82 943.926,934.76 928.326,908C912.726,881.24 904.926,851.06 904.926,817.46C904.926,784.1 912.546,754.16 927.786,727.64C943.026,701.12 963.846,680.12 990.246,664.64C1016.65,649.16 1046.17,641.42 1078.81,641.42C1109.77,641.42 1137.13,648.44 1160.89,662.48C1184.65,676.52 1203.31,695.9 1216.87,720.62C1230.43,745.34 1237.21,773.66 1237.21,805.58C1237.21,809.42 1236.97,813.86 1236.49,818.9C1236.01,823.94 1235.17,829.82 1233.97,836.54L940.566,836.54L940.566,793.7L1206.25,793.7L1188.25,809.18C1188.73,784.46 1184.53,763.1 1175.65,745.1C1166.77,727.1 1154.05,713.12 1137.49,703.16C1120.93,693.2 1101.01,688.22 1077.73,688.22C1053.25,688.22 1031.83,693.56 1013.47,704.24C995.106,714.92 980.826,729.74 970.626,748.7C960.426,767.66 955.326,789.98 955.326,815.66C955.326,841.82 960.666,864.74 971.346,884.42C982.026,904.1 997.086,919.4 1016.53,930.32C1035.97,941.24 1058.53,946.7 1084.21,946.7C1104.61,946.7 1123.45,942.98 1140.73,935.54C1158.01,928.1 1172.65,917.06 1184.65,902.42L1217.41,935.54C1201.57,954.26 1181.95,968.72 1158.55,978.92C1135.15,989.12 1110.01,994.22 1083.13,994.22Z"/>
    <rect x="1309.93" y="477.26" width="50.76" height="509.76"/>
    <rect x="1461.85" y="477.26" width="50.76" height="509.76"/>
    <path d="M1760.29,994.22C1727.41,994.22 1697.71,986.36 1671.19,970.64C1644.67,954.92 1623.61,933.62 1608.01,906.74C1592.41,879.86 1584.61,849.86 1584.61,816.74C1584.61,783.86 1592.41,754.22 1608.01,727.82C1623.61,701.42 1644.67,680.42 1671.19,664.82C1697.71,649.22 1727.41,641.42 1760.29,641.42C1793.17,641.42 1822.87,649.16 1849.39,664.64C1875.91,680.12 1896.97,701.12 1912.57,727.64C1928.17,754.16 1935.97,783.86 1935.97,816.74C1935.97,850.1 1928.17,880.16 1912.57,906.92C1896.97,933.68 1875.91,954.92 1849.39,970.64C1822.87,986.36 1793.17,994.22 1760.29,994.22ZM1760.29,945.62C1784.05,945.62 1805.23,940.04 1823.83,928.88C1842.43,917.72 1857.07,902.36 1867.75,882.8C1878.43,863.24 1883.77,841.1 1883.77,816.38C1883.77,792.14 1878.37,770.54 1867.57,751.58C1856.77,732.62 1842.13,717.62 1823.65,706.58C1805.17,695.54 1784.05,690.02 1760.29,690.02C1736.77,690.02 1715.65,695.54 1696.93,706.58C1678.21,717.62 1663.51,732.62 1652.83,751.58C1642.15,770.54 1636.81,792.26 1636.81,816.74C1636.81,841.46 1642.15,863.54 1652.83,882.98C1663.51,902.42 1678.21,917.72 1696.93,928.88C1715.65,940.04 1736.77,945.62 1760.29,945.62Z"/>
  </g>
  <g fill="red" filter="url(#blendLeft)">
    <path d="M2563.59,987.02L2563.59,648.62L2614.35,648.62L2614.35,987.02L2563.59,987.02ZM2588.79,575.54C2578.95,575.54 2570.73,572.06 2564.13,565.1C2557.53,558.14 2554.23,549.74 2554.23,539.9C2554.23,529.82 2557.53,521.42 2564.13,514.7C2570.73,507.98 2578.95,504.62 2588.79,504.62C2599.11,504.62 2607.57,507.98 2614.17,514.7C2620.77,521.42 2624.07,529.82 2624.07,539.9C2624.07,549.74 2620.77,558.14 2614.17,565.1C2607.57,572.06 2599.11,575.54 2588.79,575.54Z"/>
    <path d="M2715.87,987.02L2715.87,648.62L2766.63,648.62L2766.63,987.02L2715.87,987.02ZM2766.63,789.74L2745.39,780.74C2745.39,737.78 2755.83,703.82 2776.71,678.86C2797.59,653.9 2826.27,641.42 2862.75,641.42C2879.55,641.42 2894.97,644.42 2909.01,650.42C2923.05,656.42 2936.07,666.02 2948.07,679.22L2914.59,714.14C2906.43,705.26 2897.49,698.9 2887.77,695.06C2878.05,691.22 2866.83,689.3 2854.11,689.3C2828.43,689.3 2807.43,697.76 2791.11,714.68C2774.79,731.6 2766.63,756.62 2766.63,789.74Z"/>
    <path d="M3223.83,987.02L3050.67,813.5L3220.95,648.62L3283.59,648.62L3098.55,826.82L3099.99,797.66L3290.43,987.02L3223.83,987.02ZM3005.31,987.02L3005.31,477.26L3056.07,477.26L3056.07,987.02L3005.31,987.02Z"/>
    <path d="M3369.99,987.02L3369.99,591.38C3369.99,567.62 3375.15,546.68 3385.47,528.56C3395.79,510.44 3410.13,496.22 3428.49,485.9C3446.85,475.58 3467.91,470.42 3491.67,470.42C3509.91,470.42 3525.99,473.6 3539.91,479.96C3553.83,486.32 3566.43,495.38 3577.71,507.14L3544.59,540.26C3537.15,532.58 3529.17,526.88 3520.65,523.16C3512.13,519.44 3502.35,517.58 3491.31,517.58C3468.99,517.58 3451.65,524.24 3439.29,537.56C3426.93,550.88 3420.75,569.18 3420.75,592.46L3420.75,987.02L3369.99,987.02ZM3284.67,694.34L3284.67,648.62L3534.15,648.62L3534.15,694.34L3284.67,694.34Z"/>
    <path d="M3730.35,994.22C3698.43,994.22 3669.75,986.48 3644.31,971C3618.87,955.52 3598.77,934.52 3584.01,908C3569.25,881.48 3561.87,851.66 3561.87,818.54C3561.87,785.18 3569.25,755.18 3584.01,728.54C3598.77,701.9 3618.81,680.72 3644.13,665C3669.45,649.28 3697.95,641.42 3729.63,641.42C3755.55,641.42 3778.71,646.58 3799.11,656.9C3819.51,667.22 3836.13,681.62 3848.97,700.1C3861.81,718.58 3869.55,740.06 3872.19,764.54L3872.19,870.74C3869.31,895.22 3861.51,916.76 3848.79,935.36C3836.07,953.96 3819.57,968.42 3799.29,978.74C3779.01,989.06 3756.03,994.22 3730.35,994.22ZM3738.27,946.34C3773.55,946.34 3801.81,934.52 3823.05,910.88C3844.29,887.24 3854.91,856.34 3854.91,818.18C3854.91,792.5 3850.05,770 3840.33,750.68C3830.61,731.36 3816.93,716.3 3799.29,705.5C3781.65,694.7 3761.07,689.3 3737.55,689.3C3713.55,689.3 3692.31,694.82 3673.83,705.86C3655.35,716.9 3640.77,732.08 3630.09,751.4C3619.41,770.72 3614.07,792.86 3614.07,817.82C3614.07,842.78 3619.41,864.92 3630.09,884.24C3640.77,903.56 3655.47,918.74 3674.19,929.78C3692.91,940.82 3714.27,946.34 3738.27,946.34ZM3852.03,987.02L3852.03,896.3L3862.11,813.14L3852.03,731.42L3852.03,648.62L3902.79,648.62L3902.79,987.02L3852.03,987.02Z"/>
    <path d="M4175.31,994.22C4149.63,994.22 4126.41,989 4105.65,978.56C4084.89,968.12 4067.91,953.6 4054.71,935C4041.51,916.4 4033.47,894.98 4030.59,870.74L4030.59,764.54C4033.47,739.82 4041.63,718.22 4055.07,699.74C4068.51,681.26 4085.67,666.92 4106.55,656.72C4127.43,646.52 4150.35,641.42 4175.31,641.42C4206.75,641.42 4234.95,649.22 4259.91,664.82C4284.87,680.42 4304.61,701.54 4319.13,728.18C4333.65,754.82 4340.91,784.94 4340.91,818.54C4340.91,851.66 4333.71,881.48 4319.31,908C4304.91,934.52 4285.17,955.52 4260.09,971C4235.01,986.48 4206.75,994.22 4175.31,994.22ZM4166.67,946.34C4190.67,946.34 4211.79,940.88 4230.03,929.96C4248.27,919.04 4262.61,903.86 4273.05,884.42C4283.49,864.98 4288.71,842.78 4288.71,817.82C4288.71,792.62 4283.49,770.36 4273.05,751.04C4262.61,731.72 4248.33,716.6 4230.21,705.68C4212.09,694.76 4191.27,689.3 4167.75,689.3C4144.23,689.3 4123.47,694.76 4105.47,705.68C4087.47,716.6 4073.43,731.72 4063.35,751.04C4053.27,770.36 4048.23,792.74 4048.23,818.18C4048.23,843.14 4053.21,865.28 4063.17,884.6C4073.13,903.92 4087.05,919.04 4104.93,929.96C4122.81,940.88 4143.39,946.34 4166.67,946.34ZM4000.35,1129.58L4000.35,648.62L4051.11,648.62L4051.11,735.38L4040.67,817.46L4051.11,900.26L4051.11,1129.58L4000.35,1129.58Z"/>
    <path d="M4456.11,994.22C4444.35,994.22 4434.63,990.14 4426.95,981.98C4419.27,973.82 4415.43,964.1 4415.43,952.82C4415.43,941.06 4419.27,931.28 4426.95,923.48C4434.63,915.68 4444.35,911.78 4456.11,911.78C4467.87,911.78 4477.59,915.68 4485.27,923.48C4492.95,931.28 4496.79,941.06 4496.79,952.82C4496.79,964.1 4492.95,973.82 4485.27,981.98C4477.59,990.14 4467.87,994.22 4456.11,994.22Z"/>
    <path d="M4749.87,994.22C4716.75,994.22 4686.87,986.42 4660.23,970.82C4633.59,955.22 4612.53,933.98 4597.05,907.1C4581.57,880.22 4573.83,850.22 4573.83,817.1C4573.83,783.98 4581.57,754.16 4597.05,727.64C4612.53,701.12 4633.59,680.12 4660.23,664.64C4686.87,649.16 4716.75,641.42 4749.87,641.42C4775.31,641.42 4799.07,646.22 4821.15,655.82C4843.23,665.42 4862.07,678.98 4877.67,696.5L4844.19,730.34C4832.67,717.38 4818.81,707.42 4802.61,700.46C4786.41,693.5 4768.83,690.02 4749.87,690.02C4726.11,690.02 4704.87,695.54 4686.15,706.58C4667.43,717.62 4652.73,732.62 4642.05,751.58C4631.37,770.54 4626.03,792.38 4626.03,817.1C4626.03,841.82 4631.37,863.84 4642.05,883.16C4652.73,902.48 4667.43,917.72 4686.15,928.88C4704.87,940.04 4726.11,945.62 4749.87,945.62C4769.07,945.62 4786.83,942.14 4803.15,935.18C4819.47,928.22 4833.51,918.14 4845.27,904.94L4878.75,938.78C4862.91,956.54 4843.83,970.22 4821.51,979.82C4799.19,989.42 4775.31,994.22 4749.87,994.22Z"/>
    <path d="M5098.71,994.22C5065.83,994.22 5036.13,986.36 5009.61,970.64C4983.09,954.92 4962.03,933.62 4946.43,906.74C4930.83,879.86 4923.03,849.86 4923.03,816.74C4923.03,783.86 4930.83,754.22 4946.43,727.82C4962.03,701.42 4983.09,680.42 5009.61,664.82C5036.13,649.22 5065.83,641.42 5098.71,641.42C5131.59,641.42 5161.29,649.16 5187.81,664.64C5214.33,680.12 5235.39,701.12 5250.99,727.64C5266.59,754.16 5274.39,783.86 5274.39,816.74C5274.39,850.1 5266.59,880.16 5250.99,906.92C5235.39,933.68 5214.33,954.92 5187.81,970.64C5161.29,986.36 5131.59,994.22 5098.71,994.22ZM5098.71,945.62C5122.47,945.62 5143.65,940.04 5162.25,928.88C5180.85,917.72 5195.49,902.36 5206.17,882.8C5216.85,863.24 5222.19,841.1 5222.19,816.38C5222.19,792.14 5216.79,770.54 5205.99,751.58C5195.19,732.62 5180.55,717.62 5162.07,706.58C5143.59,695.54 5122.47,690.02 5098.71,690.02C5075.19,690.02 5054.07,695.54 5035.35,706.58C5016.63,717.62 5001.93,732.62 4991.25,751.58C4980.57,770.54 4975.23,792.26 4975.23,816.74C4975.23,841.46 4980.57,863.54 4991.25,882.98C5001.93,902.42 5016.63,917.72 5035.35,928.88C5054.07,940.04 5075.19,945.62 5098.71,945.62Z"/>
    <path d="M5350.35,987.02L5350.35,648.62L5401.11,648.62L5401.11,987.02L5350.35,987.02ZM5583.27,987.02L5583.27,779.66C5583.27,751.82 5574.87,729.68 5558.07,713.24C5541.27,696.8 5520.03,688.58 5494.35,688.58C5477.07,688.58 5461.41,692.3 5447.37,699.74C5433.33,707.18 5422.11,717.62 5413.71,731.06C5405.31,744.5 5401.11,760.46 5401.11,778.94L5378.07,769.94C5378.07,744.02 5383.77,721.46 5395.17,702.26C5406.57,683.06 5422.05,668.12 5441.61,657.44C5461.17,646.76 5483.07,641.42 5507.31,641.42C5531.31,641.42 5552.85,646.7 5571.93,657.26C5591.01,667.82 5606.13,682.7 5617.29,701.9C5628.45,721.1 5634.03,743.9 5634.03,770.3L5634.03,987.02L5583.27,987.02ZM5816.19,987.02L5816.19,779.66C5816.19,751.82 5807.79,729.68 5790.99,713.24C5774.19,696.8 5752.95,688.58 5727.27,688.58C5710.23,688.58 5694.63,692.3 5680.47,699.74C5666.31,707.18 5655.03,717.62 5646.63,731.06C5638.23,744.5 5634.03,760.46 5634.03,778.94L5604.15,769.94C5605.35,743.78 5612.07,721.16 5624.31,702.08C5636.55,683 5652.63,668.12 5672.55,657.44C5692.47,646.76 5714.43,641.42 5738.43,641.42C5762.67,641.42 5784.45,646.7 5803.77,657.26C5823.09,667.82 5838.45,682.76 5849.85,702.08C5861.25,721.4 5866.95,744.26 5866.95,770.66L5866.95,987.02L5816.19,987.02Z"/>
  </g>
  <path fill="red" d="M2239.19,588.263C2107.56,588.263 2009.49,687.593 2009.49,819.226C2009.49,948.361 2107.57,1047.69 2239.19,1047.69C2370.81,1047.69 2468.89,948.361 2468.89,819.226C2468.91,687.593 2370.83,588.263 2239.19,588.263ZM2391.06,876.45L2297.17,801.387L2341.15,749.132L2248.04,733.818L2166.68,831.231L2228.77,883.542L2266.49,838.72L2355.68,917.293C2293.2,969.582 2196.35,974.696 2130.57,924.782L2094.2,968.291C1986.33,864.278 2023.26,669.323 2169.55,622.31C2249.47,597.999 2337.58,622.014 2388.27,688.404C2425.51,743.308 2425.76,819.26 2391.06,876.45Z"/>
</svg>