<svg width="100%" height="100%" viewBox="0 0 6400 1600" xmlns="http://www.w3.org/2000/svg">
  <defs>
    <style>
      text {
        font-family:Outfit;
        font-weight:280;
        font-size:275px;
        fill:red;
      }
    </style>
    <filter id="blendRight">
      <feFlood flood-color="#fff" result="bg"/>
      <feComposite in="SourceGraphic" in2="bg" result="orig"/>
      <feOffset in="SourceGraphic" dx="19.8" result="shifted"/>
      <feBlend in="orig" in2="shifted" mode="difference"/>
    </filter>
    <filter id="blendLeft">
      <feFlood flood-color="#fff" result="bg"/>
      <feComposite in="SourceGraphic" in2="bg" result="orig"/>
      <feOffset in="SourceGraphic" dx="-19.8" result="shifted"/>
      <feBlend in="orig" in2="shifted" mode="difference"/>
    </filter>
    <symbol id="hello">

    </symbol>
  </defs>
  <path fill="#fff" d="M0 0h6400v1600H0z"/>
  <g filter="url(#blendRight)" transform="matrix(2.61779,0,0,2.61779,526.309,987.02)">
    <text x="-16.817px">h</text>
    <text x="133.631px">e</text>
    <text x="279.953px">l</text>
    <text x="337.986px">l</text>
    <text x="393.27px">o</text>
  </g>
  <g filter="url(#blendLeft)" transform="matrix(2.61779,0,0,2.61779,2512.47,987.02)">
    <text x="0px">i</text>
    <text x="58.309px">r</text>
    <text x="168.875px">k</text>
    <text x="289.068px">f</text>
    <text x="389.733px">a</text>
    <text x="548.982px">p</text>
    <text x="702.73px">.</text>
    <text x="776.441px">c<tspan x="909.836px">o</tspan></text>
    <text x="1064.68px">m</text>
  </g>
  <path fill="red" d="M2239.19,588.263C2107.56,588.263 2009.49,687.593 2009.49,819.226C2009.49,948.361 2107.57,1047.69 2239.19,1047.69C2370.81,1047.69 2468.89,948.361 2468.89,819.226C2468.91,687.593 2370.83,588.263 2239.19,588.263ZM2391.06,876.45L2297.17,801.387L2341.15,749.132L2248.04,733.818L2166.68,831.231L2228.77,883.542L2266.49,838.72L2355.68,917.293C2293.2,969.582 2196.35,974.696 2130.57,924.782L2094.2,968.291C1986.33,864.278 2023.26,669.323 2169.55,622.31C2249.47,597.999 2337.58,622.014 2388.27,688.404C2425.51,743.308 2425.76,819.26 2391.06,876.45Z"/>
</svg>