<svg width="100%" height="100%" viewBox="0 0 6400 1600" xmlns="http://www.w3.org/2000/svg">
  <defs>
    <style>
      text {
        font-family:Outfit;
        font-weight:280;
        font-size:275px;
        fill:red;
      }
    </style>
    <filter id="blendRight">
      <feFlood flood-color="#fff" result="bg"/>
      <feComposite in="SourceGraphic" in2="bg" result="orig"/>
      <feOffset in="SourceGraphic" dx="50.8" result="shifted"/>
      <feBlend in="orig" in2="shifted" mode="difference"/>
    </filter>
    <filter id="blendLeft">
      <feFlood flood-color="#fff" result="bg"/>
      <feComposite in="SourceGraphic" in2="bg" result="orig"/>
      <feOffset in="SourceGraphic" dx="-50.8" result="shifted"/>
      <feBlend in="orig" in2="shifted" mode="difference"/>
    </filter>
    <symbol id="hello">

    </symbol>
  </defs>
  <path fill="#fff" d="M0 0h6400v1600H0z"/>
  <g filter="url(#blendRight)">
    <text transform="translate(479 987) scale(2.61779)">h</text>
    <text transform="translate(873 987) scale(2.61779)">e</text>
    <text transform="translate(1256 987) scale(2.61779)">l</text>
    <text transform="translate(1407 987) scale(2.61779)">l</text>
    <text transform="translate(1559 987) scale(2.61779)">o</text>
  </g>
  <g filter="url(#blendLeft)">
    <text transform="translate(2516 987) scale(2.61779)">i</text>
    <text transform="translate(2669 987) scale(2.61779)">r</text>
    <text transform="translate(2951 987) scale(2.61779)">k</text>
    <text transform="translate(3273 987) scale(2.61779)">f</text>
    <text transform="translate(3529 987) scale(2.61779)">a</text>
    <text transform="translate(3953 987) scale(2.61779)">p</text>
    <text transform="translate(4356 987) scale(2.61779)">.</text>
    <text transform="translate(4549 987) scale(2.61779)">c</text>
    <text transform="translate(4891 987) scale(2.61779)">om</text>
  </g>
  <path fill="red" fill-rule="nonzero" d="M2243 588a225 225 0 0 0-230 231c0 129 98 229 230 229 131 0 229-100 229-229 1-131-98-231-229-231Zm152 288-94-75 44-52-93-15-82 97 62 53 38-45 89 78c-62 53-159 58-225 8l-36 43c-108-104-71-299 75-346 80-24 168 0 219 66 37 55 37 131 3 188Z"/>
</svg>