<svg width="100%" height="100%" viewBox="0 0 6400 1600" version="1.1" xmlns="http://www.w3.org/2000/svg">
    <rect x="0" y="0" width="6400" height="1600" style="fill:white;"/>

    <text x="486.917px" y="984.157px" style="font-family:'Outfit-Light', 'Outfit';font-weight:300;font-size:708.976px;fill:red;display:none;">hello</text>
    <g id="hello" fill="red">
        <path d="M779.725,984.157L779.725,788.48C779.725,759.412 771.039,735.778 753.67,717.582C736.298,699.386 713.463,690.287 685.165,690.287C665.903,690.287 648.903,694.48 634.162,702.87C619.422,711.26 607.856,722.781 599.466,737.433C591.076,752.085 586.883,768.983 586.883,788.126L564.194,775.365C564.194,750.077 570.045,727.566 581.744,707.834C593.44,688.101 609.44,672.504 629.736,661.041C650.034,649.58 673.018,643.85 698.691,643.85C724.353,643.85 747.052,649.637 766.785,661.219C786.518,672.797 801.939,688.81 813.047,709.252C824.154,729.695 829.706,753.268 829.706,779.972L829.706,984.157L779.725,984.157ZM536.901,984.157L536.901,482.201L586.883,482.201L586.883,984.157L536.901,984.157Z"/>
        <path d="M1071.47,991.246C1038.14,991.246 1008.25,983.683 981.781,968.56C955.313,953.435 934.399,932.696 919.038,906.346C903.677,879.998 895.996,850.278 895.996,817.194C895.996,784.344 903.499,754.862 918.507,728.747C933.512,702.635 954.015,681.957 980.009,666.713C1006.01,651.47 1035.07,643.85 1067.21,643.85C1097.7,643.85 1124.64,650.761 1148.04,664.585C1171.43,678.412 1189.81,697.493 1203.16,721.836C1216.51,746.176 1223.19,774.064 1223.19,805.495C1223.19,809.276 1222.95,813.647 1222.48,818.611C1222.01,823.574 1221.18,829.364 1220,835.982L931.091,835.982L931.091,793.797L1192.7,793.797L1174.98,809.04C1175.45,784.697 1171.32,763.666 1162.57,745.941C1153.83,728.216 1141.3,714.451 1125,704.642C1108.69,694.836 1089.07,689.933 1066.15,689.933C1042.05,689.933 1020.95,695.19 1002.88,705.708C984.794,716.224 970.734,730.815 960.69,749.485C950.645,768.155 945.624,790.134 945.624,815.419C945.624,841.181 950.884,863.749 961.399,883.129C971.915,902.506 986.745,917.574 1005.89,928.325C1025.03,939.079 1047.24,944.456 1072.53,944.456C1092.62,944.456 1111.17,940.791 1128.19,933.466C1145.2,926.139 1159.62,915.267 1171.43,900.851L1203.69,933.466C1188.1,951.898 1168.78,966.136 1145.73,976.181C1122.69,986.225 1097.93,991.246 1071.47,991.246Z"/>
        <rect x="1301.88" y="482.201" width="49.984" height="501.956"/>
        <rect x="1437.3" y="482.201" width="49.984" height="501.956"/>
        <path d="M1724.08,991.246C1691.7,991.246 1662.46,983.508 1636.34,968.029C1610.23,952.547 1589.49,931.573 1574.13,905.105C1558.77,878.637 1551.09,849.097 1551.09,816.485C1551.09,784.108 1558.77,754.922 1574.13,728.925C1589.49,702.93 1610.23,682.253 1636.34,666.891C1662.46,651.53 1691.7,643.85 1724.08,643.85C1756.46,643.85 1785.7,651.47 1811.82,666.713C1837.93,681.957 1858.67,702.635 1874.03,728.747C1889.39,754.862 1897.07,784.108 1897.07,816.485C1897.07,849.333 1889.39,878.932 1874.03,905.283C1858.67,931.634 1837.93,952.547 1811.82,968.029C1785.7,983.508 1756.46,991.246 1724.08,991.246ZM1724.08,943.39C1747.48,943.39 1768.33,937.895 1786.65,926.906C1804.96,915.919 1819.38,900.793 1829.9,881.532C1840.41,862.273 1845.67,840.472 1845.67,816.129C1845.67,792.26 1840.35,770.99 1829.72,752.323C1819.08,733.653 1804.67,718.881 1786.47,708.012C1768.27,697.14 1747.48,691.705 1724.08,691.705C1700.92,691.705 1680.12,697.14 1661.69,708.012C1643.26,718.881 1628.78,733.653 1618.27,752.323C1607.75,770.99 1602.49,792.378 1602.49,816.485C1602.49,840.825 1607.75,862.569 1618.27,881.71C1628.78,900.851 1643.26,915.919 1661.69,926.906C1680.12,937.895 1700.92,943.39 1724.08,943.39Z"/>
    </g>
    <use href="#hello" x="50" style="mix-blend-mode:difference"/>

    <text x="2489.08px" y="984.157px" style="font-family:'Outfit-Light', 'Outfit';font-weight:300;font-size:708.976px;fill:red;display:none;">irkfap.com</text>
    <g id="irkfap-com"  fill="red">
        <path d="M2539.42,984.157L2539.42,650.939L2589.4,650.939L2589.4,984.157L2539.42,984.157ZM2564.23,578.978C2554.54,578.978 2546.45,575.551 2539.95,568.698C2533.45,561.845 2530.2,553.572 2530.2,543.884C2530.2,533.957 2533.45,525.685 2539.95,519.07C2546.45,512.452 2554.54,509.143 2564.23,509.143C2574.39,509.143 2582.72,512.452 2589.22,519.07C2595.72,525.685 2598.97,533.957 2598.97,543.884C2598.97,553.572 2595.72,561.845 2589.22,568.698C2582.72,575.551 2574.39,578.978 2564.23,578.978Z"/>
        <path d="M2675.19,984.157L2675.19,650.939L2725.17,650.939L2725.17,984.157L2675.19,984.157ZM2725.17,789.899L2704.25,781.035C2704.25,738.734 2714.53,705.294 2735.1,680.716C2755.66,656.137 2783.9,643.85 2819.82,643.85C2836.36,643.85 2851.54,646.802 2865.37,652.711C2879.19,658.619 2892.01,668.072 2903.83,681.069L2870.86,715.454C2862.83,706.711 2854.03,700.449 2844.45,696.666C2834.88,692.886 2823.84,690.996 2811.31,690.996C2786.02,690.996 2765.34,699.326 2749.28,715.988C2733.2,732.648 2725.17,757.284 2725.17,789.899Z"/>
        <path d="M3175.37,984.157L3004.86,813.294L3172.53,650.939L3234.21,650.939L3052.01,826.409L3053.43,797.697L3240.95,984.157L3175.37,984.157ZM2960.2,984.157L2960.2,482.201L3010.18,482.201L3010.18,984.157L2960.2,984.157Z"/>
        <path d="M3333.47,984.157L3333.47,594.575C3333.47,571.18 3338.55,550.559 3348.71,532.716C3358.88,514.874 3372.99,500.871 3391.07,490.709C3409.16,480.547 3429.89,475.465 3453.29,475.465C3471.25,475.465 3487.08,478.599 3500.79,484.861C3514.49,491.122 3526.9,500.044 3538.01,511.625L3505.4,544.237C3498.07,536.675 3490.22,531.062 3481.83,527.4C3473.43,523.735 3463.8,521.905 3452.93,521.905C3430.96,521.905 3413.88,528.463 3401.71,541.578C3389.54,554.695 3383.45,572.714 3383.45,595.638L3383.45,984.157L3333.47,984.157ZM3249.46,695.959L3249.46,650.939L3495.12,650.939L3495.12,695.959L3249.46,695.959Z"/>
        <path d="M3702.49,991.246C3671.06,991.246 3642.82,983.626 3617.77,968.382C3592.72,953.139 3572.93,932.461 3558.39,906.346C3543.86,880.233 3536.59,850.87 3536.59,818.257C3536.59,785.407 3543.86,755.867 3558.39,729.635C3572.93,703.402 3592.66,682.546 3617.59,667.067C3642.53,651.588 3670.59,643.85 3701.78,643.85C3727.31,643.85 3750.11,648.931 3770.2,659.09C3790.29,669.253 3806.65,683.433 3819.3,701.629C3831.94,719.828 3839.56,740.977 3842.16,765.085L3842.16,869.657C3839.33,893.762 3831.64,914.974 3819.12,933.288C3806.59,951.602 3790.35,965.843 3770.38,976.003C3750.41,986.165 3727.78,991.246 3702.49,991.246ZM3710.29,944.1C3745.03,944.1 3772.86,932.461 3793.77,909.183C3814.69,885.903 3825.14,855.477 3825.14,817.901C3825.14,792.616 3820.36,770.459 3810.79,751.435C3801.22,732.412 3787.75,717.582 3770.38,706.946C3753.01,696.313 3732.74,690.996 3709.58,690.996C3685.95,690.996 3665.04,696.43 3646.84,707.302C3628.64,718.174 3614.28,733.121 3603.77,752.145C3593.25,771.168 3587.99,792.969 3587.99,817.548C3587.99,842.126 3593.25,863.927 3603.77,882.951C3614.28,901.974 3628.76,916.922 3647.19,927.793C3665.62,938.665 3686.66,944.1 3710.29,944.1ZM3822.31,984.157L3822.31,894.825L3832.23,812.94L3822.31,732.47L3822.31,650.939L3872.29,650.939L3872.29,984.157L3822.31,984.157Z"/>
        <path d="M4147.73,991.246C4122.44,991.246 4099.58,986.107 4079.14,975.827C4058.69,965.547 4041.97,951.249 4028.98,932.935C4015.98,914.618 4008.06,893.526 4005.22,869.657L4005.22,765.085C4008.06,740.742 4016.1,719.472 4029.33,701.276C4042.57,683.08 4059.46,668.957 4080.02,658.915C4100.58,648.87 4123.15,643.85 4147.73,643.85C4178.69,643.85 4206.46,651.53 4231.03,666.891C4255.61,682.253 4275.05,703.048 4289.35,729.281C4303.65,755.511 4310.8,785.171 4310.8,818.257C4310.8,850.87 4303.7,880.233 4289.52,906.346C4275.35,932.461 4255.91,953.139 4231.21,968.382C4206.52,983.626 4178.69,991.246 4147.73,991.246ZM4139.22,944.1C4162.85,944.1 4183.65,938.723 4201.61,927.971C4219.57,917.217 4233.69,902.27 4243.97,883.129C4254.25,863.985 4259.4,842.126 4259.4,817.548C4259.4,792.734 4254.25,770.815 4243.97,751.789C4233.69,732.765 4219.63,717.878 4201.79,707.124C4183.95,696.373 4163.44,690.996 4140.28,690.996C4117.12,690.996 4096.68,696.373 4078.96,707.124C4061.24,717.878 4047.41,732.765 4037.48,751.789C4027.56,770.815 4022.59,792.852 4022.59,817.901C4022.59,842.48 4027.5,864.281 4037.31,883.304C4047.11,902.33 4060.82,917.217 4078.43,927.971C4096.03,938.723 4116.3,944.1 4139.22,944.1ZM3975.45,1124.53L3975.45,650.939L4025.43,650.939L4025.43,736.37L4015.15,817.194L4025.43,898.725L4025.43,1124.53L3975.45,1124.53Z"/>
        <path d="M4445.5,991.246C4433.92,991.246 4424.35,987.23 4416.79,979.194C4409.22,971.16 4405.44,961.589 4405.44,950.482C4405.44,938.901 4409.22,929.27 4416.79,921.589C4424.35,913.909 4433.92,910.068 4445.5,910.068C4457.08,910.068 4466.65,913.909 4474.21,921.589C4481.78,929.27 4485.56,938.901 4485.56,950.482C4485.56,961.589 4481.78,971.16 4474.21,979.194C4466.65,987.23 4457.08,991.246 4445.5,991.246Z"/>
        <path d="M4748.94,991.246C4716.33,991.246 4686.91,983.565 4660.67,968.204C4634.44,952.843 4613.7,931.929 4598.46,905.461C4583.22,878.993 4575.6,849.451 4575.6,816.838C4575.6,784.226 4583.22,754.862 4598.46,728.747C4613.7,702.635 4634.44,681.957 4660.67,666.713C4686.91,651.47 4716.33,643.85 4748.94,643.85C4773.99,643.85 4797.39,648.575 4819.13,658.027C4840.87,667.48 4859.42,680.834 4874.78,698.085L4841.82,731.407C4830.47,718.645 4816.83,708.839 4800.87,701.985C4784.92,695.132 4767.61,691.705 4748.94,691.705C4725.54,691.705 4704.63,697.14 4686.2,708.012C4667.77,718.881 4653.29,733.653 4642.77,752.323C4632.26,770.99 4627,792.498 4627,816.838C4627,841.181 4632.26,862.864 4642.77,881.888C4653.29,900.911 4667.77,915.919 4686.2,926.906C4704.63,937.895 4725.54,943.39 4748.94,943.39C4767.85,943.39 4785.34,939.963 4801.4,933.11C4817.48,926.257 4831.3,916.333 4842.88,903.333L4875.85,936.655C4860.25,954.144 4841.46,967.615 4819.48,977.068C4797.51,986.521 4773.99,991.246 4748.94,991.246Z"/>
        <path d="M5099.53,991.246C5067.15,991.246 5037.91,983.508 5011.79,968.029C4985.68,952.547 4964.94,931.573 4949.58,905.105C4934.22,878.637 4926.54,849.097 4926.54,816.485C4926.54,784.108 4934.22,754.922 4949.58,728.925C4964.94,702.93 4985.68,682.253 5011.79,666.891C5037.91,651.53 5067.15,643.85 5099.53,643.85C5131.9,643.85 5161.16,651.47 5187.26,666.713C5213.39,681.957 5234.12,702.635 5249.49,728.747C5264.85,754.862 5272.52,784.108 5272.52,816.485C5272.52,849.333 5264.85,878.932 5249.49,905.283C5234.12,931.634 5213.39,952.547 5187.26,968.029C5161.16,983.508 5131.9,991.246 5099.53,991.246ZM5099.53,943.39C5122.92,943.39 5143.78,937.895 5162.11,926.906C5180.4,915.919 5194.83,900.793 5205.35,881.532C5215.85,862.273 5221.11,840.472 5221.11,816.129C5221.11,792.26 5215.8,770.99 5205.17,752.323C5194.54,733.653 5180.12,718.881 5161.92,708.012C5143.73,697.14 5122.92,691.705 5099.53,691.705C5076.37,691.705 5055.57,697.14 5037.14,708.012C5018.7,718.881 5004.23,733.653 4993.72,752.323C4983.2,770.99 4977.94,792.378 4977.94,816.485C4977.94,840.825 4983.2,862.569 4993.72,881.71C5004.23,900.851 5018.7,915.919 5037.14,926.906C5055.57,937.895 5076.37,943.39 5099.53,943.39Z"/>
        <path d="M5354.41,984.157L5354.41,650.939L5404.38,650.939L5404.38,984.157L5354.41,984.157ZM5583.75,984.157L5583.75,779.972C5583.75,752.559 5575.48,730.758 5558.94,714.569C5542.42,698.381 5521.48,690.287 5496.21,690.287C5479.2,690.287 5463.78,693.949 5449.93,701.276C5436.11,708.601 5425.06,718.881 5416.79,732.116C5408.52,745.349 5404.38,761.066 5404.38,779.263L5381.71,770.401C5381.71,744.878 5387.31,722.663 5398.54,703.758C5409.77,684.852 5425.01,670.14 5444.28,659.624C5463.54,649.106 5485.09,643.85 5508.96,643.85C5532.6,643.85 5553.81,649.048 5572.6,659.446C5591.37,669.844 5606.27,684.496 5617.26,703.402C5628.26,722.307 5633.75,744.76 5633.75,770.755L5633.75,984.157L5583.75,984.157ZM5813.12,984.157L5813.12,779.972C5813.12,752.559 5804.85,730.758 5788.31,714.569C5771.76,698.381 5750.85,690.287 5725.56,690.287C5708.78,690.287 5693.41,693.949 5679.48,701.276C5665.53,708.601 5654.43,718.881 5646.16,732.116C5637.89,745.349 5633.75,761.066 5633.75,779.263L5604.33,770.401C5605.51,744.642 5612.13,722.368 5624.17,703.58C5636.21,684.792 5652.05,670.14 5671.68,659.624C5691.29,649.106 5712.91,643.85 5736.55,643.85C5760.4,643.85 5781.87,649.048 5800.9,659.446C5819.9,669.844 5835.03,684.556 5846.27,703.58C5857.49,722.603 5863.1,745.114 5863.1,771.111L5863.1,984.157L5813.12,984.157Z"/>
    </g>
    <use href="#irkfap-com" x="-50" style="mix-blend-mode:difference"/>

    <path fill="red" d="M2199.8,586.4C2068.17,586.4 1970.1,685.73 1970.1,817.363C1970.1,946.498 2068.18,1045.83 2199.8,1045.83C2331.42,1045.83 2429.5,946.498 2429.5,817.363C2429.52,685.73 2331.43,586.4 2199.8,586.4ZM2351.67,874.587L2257.78,799.524L2301.76,747.269L2208.65,731.955L2127.28,829.368L2189.38,881.679L2227.1,836.857L2316.29,915.43C2253.81,967.719 2156.96,972.833 2091.18,922.919L2054.8,966.428C1946.94,862.415 1983.87,667.46 2130.16,620.447C2210.08,596.136 2298.18,620.151 2348.88,686.541C2386.12,741.445 2386.37,817.397 2351.67,874.587Z"/>
</svg>
