<svg width="100%" height="100%" viewBox="0 0 6400 1600" xmlns="http://www.w3.org/2000/svg">
  <defs>
    <style>
      path {
        fill: rgb(255, 0, 0);
        fill: color(display-p3 1 0 0);
      }
    </style>
    <filter id="blendShiftRight" color-interpolation-filters="linearRGB">
      <feFlood flood-color="#fff"/>
      <feBlend in="SourceGraphic" result="orig"/>
      <feOffset in="SourceGraphic" dx="50.8"/>
      <feBlend in="orig" mode="difference"/>
    </filter>

    <filter id="blendShiftLeft" color-interpolation-filters="linearRGB">
      <feFlood flood-color="#fff"/>
      <feComposite in="SourceGraphic" result="orig"/> <!-- place source on top of white background (operator="over") -->

      <feOffset in="SourceGraphic" dx="-50.8" result="shift"/> <!-- shift source to the left -->
      <feBlend in="orig" mode="difference" result="blend"/> <!-- blend shifted source (in2="shift") with white bg and non-shifted itself -->

      <feComposite operator="in" in="blend" in2="shift" result="shifted-cut"/> <!-- cut shifted shape from blend rectangle -->
      <feComposite operator="in" in="blend" in2="SourceGraphic" result="blend-cut"/> <!-- cut source shape from blend rectangle -->

      <feMerge> <!-- combine cut-out shapes together -->
        <feMergeNode in="shifted-cut" />
        <feMergeNode in="blend-cut" />
      </feMerge>
    </filter>
  </defs>

  <path filter="url(#blendShiftRight)" d="M779.6 987V788.3c0-29.5-8.8-53.5-26.4-72-17.7-18.5-40.8-27.7-69.6-27.7-19.5 0-36.8 4.2-51.8 12.8a92.7 92.7 0 0 0-35.2 35c-8.5 15-12.8 32.1-12.8 51.5l-23-13c0-25.6 6-48.5 17.8-68.5 11.9-20 28.1-35.9 48.7-47.5a140 140 0 0 1 70-17.5c26.1 0 49.2 5.9 69.2 17.7 20 11.7 35.7 28 47 48.7a148 148 0 0 1 17 71.9V987h-50.9ZM533 987V477.3h50.8V987H533Zm550.1 7.2c-33.8 0-64.2-7.7-91-23a170.4 170.4 0 0 1-63.8-63.2 176.4 176.4 0 0 1-23.4-90.5 177 177 0 0 1 22.9-89.9 171.8 171.8 0 0 1 151-86.2c31 0 58.3 7 82 21a150 150 0 0 1 56 58.2 173.8 173.8 0 0 1 17.2 116H940.6v-42.9h265.6l-18 15.5c.5-24.7-3.7-46.1-12.5-64.1-9-18-21.7-32-38.2-42a114.6 114.6 0 0 0-59.8-14.9c-24.5 0-45.9 5.4-64.2 16a111.5 111.5 0 0 0-42.9 44.5 139.3 139.3 0 0 0-15.3 67c0 26.1 5.4 49 16 68.7a114 114 0 0 0 45.2 46c19.5 10.8 42 16.3 67.7 16.3a140 140 0 0 0 56.5-11.2c17.3-7.4 32-18.4 44-33l32.7 33a159.2 159.2 0 0 1-58.9 43.4 186.7 186.7 0 0 1-75.4 15.3Zm226.8-516.9h50.8v509.8h-50.8zm151.9 0h50.8v509.8h-50.8zm298.5 516.9c-32.9 0-62.6-7.8-89.1-23.6a175.3 175.3 0 0 1-86.6-153.9c0-32.8 7.8-62.5 23.4-88.9a175.7 175.7 0 0 1 63.2-63 172.4 172.4 0 0 1 89-23.4A173.5 173.5 0 0 1 1936 816.7a175.7 175.7 0 0 1-86.6 154 171.4 171.4 0 0 1-89.1 23.5Zm0-48.6c23.8 0 45-5.6 63.5-16.7a119.3 119.3 0 0 0 44-46.1c10.6-19.6 16-41.7 16-66.4 0-24.3-5.4-45.9-16.2-64.8a121 121 0 0 0-44-45 121.1 121.1 0 0 0-63.3-16.6c-23.5 0-44.6 5.5-63.4 16.6-18.7 11-33.4 26-44 45-10.8 19-16 40.7-16 65.1 0 24.8 5.3 46.8 16 66.3a119.2 119.2 0 0 0 107.4 62.6Z"/>
  <path filter="url(#blendShiftLeft)" d="M2563.6 987V648.6h50.8V987h-50.8Zm25.2-411.5c-9.9 0-18-3.4-24.7-10.4-6.6-7-9.9-15.4-9.9-25.2a34.3 34.3 0 0 1 34.6-35.2 34 34 0 0 1 35.3 35.2 35.1 35.1 0 0 1-35.3 35.6ZM2715.9 987V648.6h50.7V987H2716Zm50.7-197.3-21.2-9c0-43 10.4-76.9 31.3-101.8 20.9-25 49.6-37.5 86-37.5 16.9 0 32.3 3 46.3 9s27 15.6 39 28.8l-33.4 35a72.9 72.9 0 0 0-26.8-19.1c-9.8-3.9-21-5.8-33.7-5.8a83.7 83.7 0 0 0-63 25.4c-16.3 16.9-24.5 42-24.5 75ZM3223.8 987l-173.1-173.5L3221 648.6h62.6l-185 178.2 1.4-29.1L3290.4 987h-66.6Zm-218.5 0V477.3h50.8V987h-50.8Zm364.7 0V591.4c0-23.8 5.2-44.7 15.5-62.8a111.3 111.3 0 0 1 43-42.7 126.7 126.7 0 0 1 63.2-15.5 115 115 0 0 1 48.2 9.6 123 123 0 0 1 37.8 27.1l-33.1 33.2a75.6 75.6 0 0 0-24-17.1 72.7 72.7 0 0 0-29.3-5.6c-22.3 0-39.7 6.6-52 20-12.4 13.3-18.6 31.6-18.6 54.9V987H3370Zm-85.3-292.7v-45.7h249.5v45.7h-249.5Zm445.6 299.9c-31.9 0-60.6-7.7-86-23.2a168 168 0 0 1-60.3-63 180.8 180.8 0 0 1-22.1-89.5c0-33.3 7.3-63.3 22.1-90a171 171 0 0 1 60.1-63.5 158.8 158.8 0 0 1 85.5-23.6c26 0 49.1 5.2 69.5 15.5a132.6 132.6 0 0 1 73 107.6v106.2a142 142 0 0 1-23.3 64.7 131 131 0 0 1-49.5 43.3 149.9 149.9 0 0 1-69 15.5Zm8-47.9c35.3 0 63.5-11.8 84.8-35.4 21.2-23.7 31.8-54.6 31.8-92.7 0-25.7-4.8-48.2-14.6-67.5a109.3 109.3 0 0 0-102.8-61.4 118.8 118.8 0 0 0-107.4 62.1 135 135 0 0 0-16 66.4c0 25 5.3 47.1 16 66.4a118.3 118.3 0 0 0 44 45.6c18.8 11 40.2 16.5 64.2 16.5ZM3852 987v-90.7l10.1-83.2-10-81.7v-82.8h50.7V987H3852Zm323.3 7.2c-25.7 0-48.9-5.2-69.7-15.6a136.8 136.8 0 0 1-75-107.9V764.5a134.6 134.6 0 0 1 76-107.8 154.5 154.5 0 0 1 68.7-15.3c31.4 0 59.6 7.8 84.6 23.4 25 15.6 44.7 36.7 59.2 63.4a185.7 185.7 0 0 1 21.8 90.3c0 33.2-7.2 63-21.6 89.5a165.3 165.3 0 0 1-59.2 63 158.1 158.1 0 0 1-84.8 23.2Zm-8.6-47.9c24 0 45-5.4 63.3-16.3 18.3-11 32.6-26.1 43-45.6a138.6 138.6 0 0 0 15.7-66.6 139 139 0 0 0-15.6-66.8 116.4 116.4 0 0 0-42.9-45.3 118 118 0 0 0-62.4-16.4 113 113 0 0 0-104.4 61.7 143.1 143.1 0 0 0-15.2 67.2c0 25 5 47 15 66.4a112.2 112.2 0 0 0 103.5 61.7Zm-166.3 183.3v-481h50.7v86.8l-10.4 82 10.4 82.9v229.3h-50.8Zm455.7-135.4c-11.8 0-21.5-4-29.2-12.2a41 41 0 0 1-11.5-29.2c0-11.7 3.9-21.5 11.6-29.3a39.2 39.2 0 0 1 29.1-11.7c11.8 0 21.5 3.9 29.2 11.7a40.1 40.1 0 0 1 11.5 29.3 41 41 0 0 1-11.5 29.2 38.3 38.3 0 0 1-29.2 12.2Zm293.8 0a172.1 172.1 0 0 1-152.8-87.1 177 177 0 0 1-23.3-90 172 172 0 0 1 86.4-152.5 175.1 175.1 0 0 1 89.7-23.2c25.4 0 49.2 4.8 71.3 14.4 22 9.6 40.9 23.2 56.5 40.7l-33.5 33.8a114.9 114.9 0 0 0-41.6-29.8c-16.2-7-33.8-10.5-52.7-10.5a123 123 0 0 0-63.8 16.6c-18.7 11-33.4 26-44 45a131 131 0 0 0-16 65.5c0 24.7 5.3 46.7 16 66a119.6 119.6 0 0 0 107.8 62.5c19.2 0 37-3.5 53.3-10.4a116 116 0 0 0 42-30.3l33.6 33.9a160.8 160.8 0 0 1-57.3 41 179.4 179.4 0 0 1-71.6 14.4Zm348.8 0a170 170 0 0 1-89-23.6 175.3 175.3 0 0 1-86.7-153.9c0-32.8 7.8-62.5 23.4-88.9a175.7 175.7 0 0 1 63.2-63 172.4 172.4 0 0 1 89.1-23.4 173.5 173.5 0 0 1 175.7 175.3 175.7 175.7 0 0 1-86.6 154 171.4 171.4 0 0 1-89 23.5Zm0-48.6c23.8 0 45-5.6 63.6-16.7a119.3 119.3 0 0 0 43.9-46.1c10.7-19.6 16-41.7 16-66.4 0-24.3-5.4-45.9-16.2-64.8-10.8-19-25.4-34-44-45a121.1 121.1 0 0 0-63.3-16.6c-23.5 0-44.6 5.5-63.3 16.6-18.8 11-33.5 26-44.1 45-10.7 19-16 40.7-16 65.1 0 24.8 5.3 46.8 16 66.3a119.2 119.2 0 0 0 107.4 62.6Zm251.7 41.4V648.6h50.7V987h-50.8Zm232.9 0V779.7c0-27.9-8.4-50-25.2-66.5a87.4 87.4 0 0 0-63.8-24.6 99.7 99.7 0 0 0-47 11.1 87.1 87.1 0 0 0-33.6 31.4 88.5 88.5 0 0 0-12.6 47.8l-23-9c0-25.9 5.7-48.4 17-67.6a120 120 0 0 1 46.5-44.9 136 136 0 0 1 65.7-16c24 0 45.6 5.3 64.6 15.9a117.2 117.2 0 0 1 45.4 44.6c11.1 19.2 16.7 42 16.7 68.4V987h-50.7Zm232.9 0V779.7c0-27.9-8.4-50-25.2-66.5a87.4 87.4 0 0 0-63.7-24.6 99 99 0 0 0-46.8 11.1 86.8 86.8 0 0 0-33.9 31.4 88.5 88.5 0 0 0-12.6 47.8l-29.9-9c1.3-26.1 8-48.7 20.2-67.8 12.3-19.1 28.3-34 48.3-44.7 19.9-10.6 41.8-16 65.8-16 24.3 0 46 5.3 65.4 15.9a119 119 0 0 1 46 44.8 132.5 132.5 0 0 1 17.1 68.6V987h-50.7Z"/>
  <path d="M2239.2 588.3c-131.6 0-229.7 99.3-229.7 231 0 129 98 228.4 229.7 228.4 131.6 0 229.7-99.3 229.7-228.5 0-131.6-98-231-229.7-231ZM2391 876.5l-94-75.1 44-52.3-93-15.3-81.4 97.4 62 52.3 37.8-44.8 89.2 78.6c-62.5 52.3-159.3 57.4-225.1 7.5l-36.4 43.5c-107.9-104-71-299 75.4-346 79.9-24.3 168-.3 218.7 66.1 37.2 55 37.5 130.9 2.8 188Z"/>
</svg>