<svg xmlns="http://www.w3.org/2000/svg" viewBox="0 0 16 16">
  <style>
    path {fill: red;}
    @media (color-gamut: p3) {
      path {fill: color(display-p3 1 0 0);}
    }
  </style>
  <path d="M8-.001c-4.585 0-8 3.46-8 8.045 0 4.497 3.416 7.957 8 7.957s7.999-3.46 7.999-7.957C16.001 3.459 12.584-.001 8-.001Zm5.29 10.037-3.271-2.613 1.532-1.821-3.243-.533-2.834 3.393 2.163 1.821 1.313-1.56 3.107 2.736c-2.177 1.821-5.549 1.999-7.84.261L2.95 13.235C-.807 9.613.479 2.823 5.574 1.185c2.784-.847 5.852-.01 7.618 2.303 1.297 1.911 1.306 4.557.098 6.548Z"/>
</svg>